<svg preserveAspectRatio="none" width="100%" height="100%" overflow="visible" style="display: block;" viewBox="0 0 26.7674 72.4123" fill="none" xmlns="http://www.w3.org/2000/svg">
<path id="Union" d="M20.5997 69.2108C20.1833 70.4261 19.6905 71.8134 18.33 72.2798C17.2181 72.6506 16.0676 72.1813 15.0739 71.6369C12.6355 70.2652 10.3056 68.6944 7.93788 67.2099C5.42501 65.6816 2.94467 64.1264 0.464286 62.5713C-0.695687 61.8912 0.548639 60.1577 1.67613 60.8646C4.26923 62.4903 6.89477 64.0898 9.48786 65.7155C11.4172 66.9252 13.2996 68.1729 15.2223 69.3196C13.305 64.7784 11.8831 60.0233 10.9215 55.2113C9.07267 45.8845 8.99335 36.1898 10.7331 26.8512C11.6383 22.1257 12.9587 17.4406 14.7677 12.952C16.8767 7.83444 19.8796 2.74336 24.9488 0.0943146C25.4513 -0.156066 26.1128 0.117004 26.3632 0.619535C26.581 1.14879 26.3132 1.75043 25.8107 2.00081C20.5524 4.75108 17.836 10.5874 15.8876 15.8997C12.7242 24.5028 11.3246 33.7251 11.6066 42.8704C11.8828 52.075 13.9267 61.2412 17.6558 69.6734C17.7501 69.8755 17.7746 70.0687 17.7491 70.2444C17.8481 70.1863 17.9383 70.0995 18.0149 69.9773C18.3625 69.4729 18.4845 68.8271 18.6869 68.2787C18.8951 67.6711 19.0981 67.1224 19.3063 66.5147C21.0866 61.3954 22.9255 56.2816 24.7058 51.1622C25.1872 49.8935 27.1498 50.621 26.7013 51.8629C25.622 54.9873 24.5479 58.0526 23.4419 61.1446C22.4944 63.8333 21.5472 66.5221 20.5997 69.2108Z" fill="var(--fill-0, black)"/>
</svg>
