<svg preserveAspectRatio="none" width="100%" height="100%" overflow="visible" style="display: block;" viewBox="0 0 7.91122 12.0832" fill="none" xmlns="http://www.w3.org/2000/svg">
<path id="Vector" d="M4.41391 11.88C4.35535 11.944 4.2841 11.9952 4.20469 12.0302C4.12527 12.0652 4.03944 12.0832 3.95266 12.0832C3.86588 12.0832 3.78005 12.0652 3.70064 12.0302C3.62123 11.9952 3.54997 11.944 3.49141 11.88L0.158079 8.23417C0.0488596 8.11142 -0.00763214 7.9506 0.000830295 7.78651C0.00929273 7.62243 0.0820286 7.46827 0.203296 7.35741C0.324564 7.24655 0.484608 7.1879 0.648794 7.19416C0.812979 7.20041 0.968098 7.27107 1.08058 7.39083L3.32725 9.84917V0.625C3.32725 0.45924 3.39309 0.300268 3.5103 0.183058C3.62752 0.0658479 3.78649 0 3.95225 0C4.11801 0 4.27698 0.0658479 4.39419 0.183058C4.5114 0.300268 4.57725 0.45924 4.57725 0.625V9.84833L6.82475 7.39C6.93669 7.26767 7.09264 7.19482 7.2583 7.18747C7.42396 7.18013 7.58575 7.23889 7.70808 7.35083C7.83041 7.46278 7.90326 7.61873 7.91061 7.78439C7.91795 7.95005 7.85919 8.11184 7.74725 8.23417L4.41391 11.88Z" fill="var(--fill-0, white)"/>
</svg>
