<svg preserveAspectRatio="none" width="100%" height="100%" overflow="visible" style="display: block;" viewBox="0 0 16.25 6.25" fill="none" xmlns="http://www.w3.org/2000/svg">
<path id="Vector" d="M1.25 0.625C1.25 0.45924 1.18415 0.300269 1.06694 0.183059C0.949732 0.0658483 0.79076 0 0.625 0C0.45924 0 0.300268 0.0658483 0.183058 0.183059C0.0658479 0.300269 0 0.45924 0 0.625V0.670834C0 1.81 8.69234e-08 2.72917 0.0975001 3.45167C0.1975 4.20167 0.414167 4.83333 0.915 5.335C1.41667 5.83667 2.04833 6.05167 2.79833 6.15333C3.52083 6.25 4.44 6.25 5.57917 6.25H10.6708C11.81 6.25 12.7292 6.25 13.4517 6.15333C14.2017 6.05167 14.8333 5.83667 15.335 5.335C15.8367 4.83333 16.0517 4.20167 16.1533 3.45167C16.25 2.72917 16.25 1.81 16.25 0.670834V0.625C16.25 0.45924 16.1842 0.300269 16.0669 0.183059C15.9497 0.0658483 15.7908 0 15.625 0C15.4592 0 15.3003 0.0658483 15.1831 0.183059C15.0658 0.300269 15 0.45924 15 0.625C15 1.82083 14.9983 2.655 14.9142 3.285C14.8317 3.89667 14.6808 4.22 14.4508 4.45083C14.22 4.68167 13.8967 4.83167 13.2842 4.91417C12.655 4.99833 11.8208 5 10.625 5H5.625C4.42917 5 3.59417 4.99833 2.965 4.91417C2.35333 4.83167 2.03 4.68083 1.79917 4.45083C1.56833 4.22 1.41833 3.89667 1.33583 3.28417C1.25167 2.655 1.25 1.82083 1.25 0.625Z" fill="var(--fill-0, white)"/>
</svg>
